<?xml version="1.0" encoding="UTF-8" standalone="no"?>
<!-- Created with Inkscape (http://www.inkscape.org/) -->

<svg
   xmlns:dc="http://purl.org/dc/elements/1.1/"
   xmlns:cc="http://creativecommons.org/ns#"
   xmlns:rdf="http://www.w3.org/1999/02/22-rdf-syntax-ns#"
   xmlns:svg="http://www.w3.org/2000/svg"
   xmlns="http://www.w3.org/2000/svg"
   xmlns:xlink="http://www.w3.org/1999/xlink"
   xmlns:sodipodi="http://sodipodi.sourceforge.net/DTD/sodipodi-0.dtd"
   xmlns:inkscape="http://www.inkscape.org/namespaces/inkscape"
   width="302.25693"
   height="94.153572"
   id="svg4888"
   version="1.1"
   inkscape:version="0.48.3.1 r9886"
   sodipodi:docname="swoop.svg">
  <defs
     id="defs4890">
    <linearGradient
       id="SVGID_1_"
       gradientUnits="userSpaceOnUse"
       x1="501.51041"
       y1="209.1637"
       x2="520.10327"
       y2="215.00661">
      <stop
         offset="0"
         style="stop-color:#888A8A"
         id="stop18" />
      <stop
         offset="1"
         style="stop-color:#434343"
         id="stop20" />
    </linearGradient>
    <linearGradient
       id="SVGID_2_"
       gradientUnits="userSpaceOnUse"
       x1="498.33441"
       y1="161.2551"
       x2="540.85138"
       y2="164.3905">
      <stop
         offset="0"
         style="stop-color:#888A8A"
         id="stop27" />
      <stop
         offset="1"
         style="stop-color:#434343"
         id="stop29" />
    </linearGradient>
    <linearGradient
       id="SVGID_3_"
       gradientUnits="userSpaceOnUse"
       x1="471.70499"
       y1="174.7451"
       x2="488.27231"
       y2="176.3786">
      <stop
         offset="0"
         style="stop-color:#888A8A"
         id="stop34" />
      <stop
         offset="1"
         style="stop-color:#434343"
         id="stop36" />
    </linearGradient>
    <linearGradient
       id="SVGID_4_"
       gradientUnits="userSpaceOnUse"
       x1="488.1525"
       y1="173.67821"
       x2="498.2485"
       y2="174.1402">
      <stop
         offset="0"
         style="stop-color:#888A8A"
         id="stop41" />
      <stop
         offset="1"
         style="stop-color:#434343"
         id="stop43" />
    </linearGradient>
    <linearGradient
       y2="192.9651"
       x2="522.25342"
       y1="189.7054"
       x1="511.80801"
       gradientUnits="userSpaceOnUse"
       id="SVGID_5_">
      <stop
         id="stop64"
         style="stop-color:#C2C0BF"
         offset="0" />
      <stop
         id="stop66"
         style="stop-color:#888787"
         offset="0.18" />
      <stop
         id="stop68"
         style="stop-color:#DDDDDE"
         offset="0.41" />
      <stop
         id="stop70"
         style="stop-color:#A8A8A9"
         offset="0.6" />
      <stop
         id="stop72"
         style="stop-color:#C2C1C0"
         offset="1" />
    </linearGradient>
    <linearGradient
       y2="161.08549"
       x2="539.44452"
       y1="158.8633"
       x1="518.42981"
       gradientUnits="userSpaceOnUse"
       id="SVGID_6_">
      <stop
         id="stop77"
         style="stop-color:#888A8A"
         offset="0" />
      <stop
         id="stop79"
         style="stop-color:#434343"
         offset="1" />
    </linearGradient>
    <linearGradient
       y2="158.5024"
       x2="532.23138"
       y1="154.2556"
       x1="525.18152"
       gradientUnits="userSpaceOnUse"
       id="SVGID_7_">
      <stop
         id="stop84"
         style="stop-color:#C2C0BF"
         offset="0" />
      <stop
         id="stop86"
         style="stop-color:#888787"
         offset="0.18" />
      <stop
         id="stop88"
         style="stop-color:#DDDDDE"
         offset="0.41" />
      <stop
         id="stop90"
         style="stop-color:#A8A8A9"
         offset="0.6" />
      <stop
         id="stop92"
         style="stop-color:#C2C1C0"
         offset="1" />
    </linearGradient>
    <linearGradient
       y2="151.69659"
       x2="542.45471"
       y1="148.41141"
       x1="520.71179"
       gradientUnits="userSpaceOnUse"
       id="SVGID_8_">
      <stop
         id="stop97"
         style="stop-color:#888A8A"
         offset="0" />
      <stop
         id="stop99"
         style="stop-color:#434343"
         offset="1" />
    </linearGradient>
    <linearGradient
       y2="149.67171"
       x2="528.36621"
       y1="147.8483"
       x1="523.87097"
       gradientUnits="userSpaceOnUse"
       id="SVGID_9_">
      <stop
         id="stop106"
         style="stop-color:#C2C0BF"
         offset="0" />
      <stop
         id="stop108"
         style="stop-color:#888787"
         offset="0.18" />
      <stop
         id="stop110"
         style="stop-color:#DDDDDE"
         offset="0.41" />
      <stop
         id="stop112"
         style="stop-color:#A8A8A9"
         offset="0.6" />
      <stop
         id="stop114"
         style="stop-color:#C2C1C0"
         offset="1" />
    </linearGradient>
    <linearGradient
       y2="139.133"
       x2="532.45502"
       y1="138.4743"
       x1="523.9729"
       gradientUnits="userSpaceOnUse"
       id="SVGID_10_">
      <stop
         id="stop121"
         style="stop-color:#888A8A"
         offset="0" />
      <stop
         id="stop123"
         style="stop-color:#434343"
         offset="1" />
    </linearGradient>
    <linearGradient
       y2="138.4332"
       x2="532.77472"
       y1="134.55479"
       x1="526.69989"
       gradientUnits="userSpaceOnUse"
       id="SVGID_11_">
      <stop
         id="stop128"
         style="stop-color:#C2C0BF"
         offset="0" />
      <stop
         id="stop130"
         style="stop-color:#888787"
         offset="0.18" />
      <stop
         id="stop132"
         style="stop-color:#DDDDDE"
         offset="0.41" />
      <stop
         id="stop134"
         style="stop-color:#A8A8A9"
         offset="0.6" />
      <stop
         id="stop136"
         style="stop-color:#C2C1C0"
         offset="1" />
    </linearGradient>
    <linearGradient
       y2="141.3009"
       x2="538.60571"
       y1="138.32581"
       x1="537.63538"
       gradientUnits="userSpaceOnUse"
       id="SVGID_12_">
      <stop
         id="stop141"
         style="stop-color:#C2C0BF"
         offset="0" />
      <stop
         id="stop143"
         style="stop-color:#888787"
         offset="0.18" />
      <stop
         id="stop145"
         style="stop-color:#DDDDDE"
         offset="0.41" />
      <stop
         id="stop147"
         style="stop-color:#A8A8A9"
         offset="0.6" />
      <stop
         id="stop149"
         style="stop-color:#C2C1C0"
         offset="1" />
    </linearGradient>
    <linearGradient
       y2="170.79179"
       x2="533.80859"
       y1="170.254"
       x1="527.52911"
       gradientUnits="userSpaceOnUse"
       id="SVGID_13_">
      <stop
         id="stop154"
         style="stop-color:#888A8A"
         offset="0" />
      <stop
         id="stop156"
         style="stop-color:#434343"
         offset="1" />
    </linearGradient>
    <linearGradient
       y2="165.1362"
       x2="534.40601"
       y1="163.7794"
       x1="530.79602"
       gradientUnits="userSpaceOnUse"
       id="SVGID_14_">
      <stop
         id="stop161"
         style="stop-color:#C2C0BF"
         offset="0" />
      <stop
         id="stop163"
         style="stop-color:#888787"
         offset="0.18" />
      <stop
         id="stop165"
         style="stop-color:#DDDDDE"
         offset="0.41" />
      <stop
         id="stop167"
         style="stop-color:#A8A8A9"
         offset="0.6" />
      <stop
         id="stop169"
         style="stop-color:#C2C1C0"
         offset="1" />
    </linearGradient>
    <linearGradient
       y2="147.7336"
       x2="526.26721"
       y1="147.3232"
       x1="525.85938"
       gradientUnits="userSpaceOnUse"
       id="SVGID_15_">
      <stop
         id="stop174"
         style="stop-color:#C2C0BF"
         offset="0" />
      <stop
         id="stop176"
         style="stop-color:#888787"
         offset="0.18" />
      <stop
         id="stop178"
         style="stop-color:#DDDDDE"
         offset="0.41" />
      <stop
         id="stop180"
         style="stop-color:#A8A8A9"
         offset="0.6" />
      <stop
         id="stop182"
         style="stop-color:#4A4A4A"
         offset="1" />
    </linearGradient>
    <linearGradient
       id="SVGID_16_"
       gradientUnits="userSpaceOnUse"
       x1="510.306"
       y1="177.4798"
       x2="537.62109"
       y2="181.295">
      <stop
         offset="0"
         style="stop-color:#888A8A"
         id="stop193" />
      <stop
         offset="1"
         style="stop-color:#434343"
         id="stop195" />
    </linearGradient>
    <linearGradient
       inkscape:collect="always"
       xlink:href="#linearGradient4500"
       id="linearGradient4506"
       x1="494.47537"
       y1="143.45694"
       x2="515.7821"
       y2="143.58827"
       gradientUnits="userSpaceOnUse" />
    <linearGradient
       inkscape:collect="always"
       id="linearGradient4500">
      <stop
         style="stop-color:#ffffff;stop-opacity:0.9"
         offset="0"
         id="stop4502" />
      <stop
         id="stop4510"
         offset="0.54885328"
         style="stop-color:#ffffff;stop-opacity:0.06432749" />
      <stop
         id="stop4508"
         offset="1"
         style="stop-color:#ffffff;stop-opacity:0.722" />
    </linearGradient>
    <linearGradient
       id="SVGID_19_"
       gradientUnits="userSpaceOnUse"
       x1="503.67859"
       y1="136.22929"
       x2="498.3345"
       y2="132.056">
      <stop
         offset="0"
         style="stop-color:#000000"
         id="stop214" />
      <stop
         offset="1"
         style="stop-color:#FFFFFF"
         id="stop216" />
    </linearGradient>
  </defs>
  <sodipodi:namedview
     id="base"
     pagecolor="#ffffff"
     bordercolor="#666666"
     borderopacity="1.0"
     inkscape:pageopacity="0.0"
     inkscape:pageshadow="2"
     inkscape:zoom="2.8"
     inkscape:cx="125.22403"
     inkscape:cy="38.09999"
     inkscape:document-units="px"
     inkscape:current-layer="layer1"
     showgrid="false"
     fit-margin-top="0"
     fit-margin-left="0"
     fit-margin-right="0"
     fit-margin-bottom="0"
     inkscape:window-width="1920"
     inkscape:window-height="1115"
     inkscape:window-x="0"
     inkscape:window-y="26"
     inkscape:window-maximized="1" />
  <metadata
     id="metadata4893">
    <rdf:RDF>
      <cc:Work
         rdf:about="">
        <dc:format>image/svg+xml</dc:format>
        <dc:type
           rdf:resource="http://purl.org/dc/dcmitype/StillImage" />
        <dc:title></dc:title>
      </cc:Work>
    </rdf:RDF>
  </metadata>
  <g
     inkscape:label="Layer 1"
     inkscape:groupmode="layer"
     id="layer1"
     transform="translate(-68.87154,-185.28538)">
    <g
       transform="translate(-179.12846,57.538956)"
       id="g6049"
       inkscape:export-filename="/home/kurt/Desktop/LinuxCNC-Logos/ModernChips/swoop.png"
       inkscape:export-xdpi="200"
       inkscape:export-ydpi="200">
      <g
         transform="translate(-0.24306796,0)"
         id="g4512">
        <ellipse
           sodipodi:ry="7.9000001"
           sodipodi:rx="42.200001"
           sodipodi:cy="214"
           sodipodi:cx="508.29999"
           style="fill:#aad4f1"
           id="ellipse13"
           ry="7.9000001"
           rx="42.200001"
           cy="214"
           cx="508.29999"
           class="st1"
           d="m 550.49999,214 c 0,4.36305 -18.89359,7.9 -42.2,7.9 -23.30642,0 -42.2,-3.53695 -42.2,-7.9 0,-4.36305 18.89358,-7.9 42.2,-7.9 23.30641,0 42.2,3.53695 42.2,7.9 z" />
        <path
           class="st2"
           d="m 499.1,215.4 c 3,0.3 11.6,1.1 15,1.1 2.7,-0.1 5,-0.1 6.4,-0.1 l 0,0 -0.1,-2.2 c 0,-1.6 0.1,-3.7 0.1,-6 l -1.9,0.6 c 0,0 -1,0.2 -2.5,0.9 -1.6,0.8 -3.8,2.1 -8.4,0.9 -4.4,-1.2 -6.5,-1.1 -7.6,-0.8 0.2,2.5 -0.1,4.4 -1,5.6 z"
           id="path22"
           style="fill:url(#SVGID_1_);fill-rule:evenodd;stroke:#000000;stroke-miterlimit:2.61310005"
           inkscape:connector-curvature="0" />
        <path
           sodipodi:nodetypes="ccccsssccccccccccccccccccccccccc"
           class="st3"
           d="m 512.8,157.5 c -0.8,3 -3.4,5.7 -10.5,3.2 -1.8,-0.6 -3.4,-1.2 -4.8,-1.8 l 1.9,0.8 c 0,0 -0.3,4.6 -0.5,6 -0.2,1.4 -0.8,5.7 -2.3,8.2 -1.5,2.5 -4.5,9.8 -4.5,11.5 0,1.7 0.2,5.2 0.2,5.2 l 2.1,3.1 c 0,0 4.1,6.1 5.4,13.2 0.2,1.1 0.3,2 0.4,2.9 l 0,0 0,0 c 1.1,-0.3 3.2,-0.4 7.5,0.8 1.2,0.2 2.2,0.4 3,0.5 2.7,0.1 4.2,-0.8 5.4,-1.4 1.5,-0.7 2.5,-0.9 2.5,-0.9 l 1.9,-0.6 0,-1.6 c 0.1,-5.5 2.5,-11 3.4,-13.2 0.8,-2.3 2.2,-2.3 3.3,-2.5 0.2,0 0.4,0 0.6,0.2 0.6,0.1 1.4,0.4 2.3,0.4 -0.2,0 -0.4,-0.1 -0.5,-0.1 -3.4,-0.8 -11.3,-7.5 -11.3,-7.5 0,0 -5.5,-4.2 -7.1,-9.7 -1.6,-5.4 -1.4,-6.6 -0.4,-7.3 0.9,-0.6 2.6,0.2 3.8,1 0,0 2.7,2.5 5.5,4.3 0.9,0.6 2,1.2 3.1,1.5 0.33188,9.8583 -5.9866,-11.52 -6.8,-13.2 z"
           id="path24"
           inkscape:connector-curvature="0"
           style="fill:#ffffff;fill-rule:evenodd;stroke:#000000;stroke-miterlimit:2.61310005" />
        <path
           class="st4"
           d="m 497.5,138.4 c 1.4,-14.2 27,-12.7 26.6,-0.5 l -4.1,0.1 0.96904,2.29879 L 524.3,140.4 c 0,0 1.1,11.3 3.4,12.6 2.3,1.3 6.3,13.3 6.3,13.3 0,0 1.3,3.1 2.6,7.9 0.4,1.4 0.8,2.9 1.2,4.5 1.7,7.3 2.4,19.9 2.4,19.9 -0.9,-2 -0.8,-3.4 -2.7,-3.8 -1.9,-0.4 -5.2,1.2 -6.5,0.1 -1.1,-0.9 -2.1,-3.1 -3.1,-3.8 1.2,0.3 3.5,0.9 5.8,-0.1 2.3,-1.1 3.4,-2 3.9,-4.2 0.5,-2.3 -0.4,-11.8 -2.6,-13.9 -4.1,-3.9 -6,2.5 -10.9,1 -0.5,-0.2 -0.8,0 -1.1,-0.4 l -6.7,-13 -3.5,-2.8 c 0,0 0.9,-2.8 0.2,-5.2 0,0 -0.1,-0.5 -0.3,-1.2 l -14.9,-3.6 0,-7.3 0.8,-2.2 c -0.4,-0.1 -0.8,0 -1.1,0.2 z"
           id="path31"
           style="fill:url(#SVGID_2_);fill-rule:evenodd;stroke:#000000;stroke-miterlimit:2.61310005"
           inkscape:connector-curvature="0"
           sodipodi:nodetypes="cccccsccccsccccccccccccccc" />
        <path
           class="st8"
           d="m 511.1,149 c 2.1,0 3.8,-2.2 3.8,-4.9 0,-2.7 -1.7,-4.9 -3.8,-4.9 -2.1,0 -3.8,2.2 -3.8,4.9 0,2.7 1.7,4.9 3.8,4.9 z"
           id="path55"
           inkscape:connector-curvature="0"
           style="fill:#ffffff;fill-rule:evenodd" />
        <path
           class="st8"
           d="m 501.74278,148 c 1.68159,0 2.94278,-1.89179 2.94278,-4.09887 0,-2.20709 -1.36629,-4.09888 -2.94278,-4.09888 -1.68159,0 -2.94278,1.89179 -2.94278,4.09888 0,2.20708 1.36629,4.09887 2.94278,4.09887 z"
           id="path49"
           inkscape:connector-curvature="0"
           style="fill:#ffffff;fill-rule:evenodd" />
        <path
           sodipodi:nodetypes="ccsszzcccccc"
           class="st5"
           d="m 487,186.8 c -0.9,-0.6 -11.5,-7.1 -13,-9.9 -1.6,-2.9 -2.7,-9.7 -2.3,-11.2 0.4,-1.5 1.6,-1.7 3.3,-0.8 1.7,0.9 7.6,3.3 9.5,3.3 1.9,0 4.35626,-0.48701 5.35312,-0.0719 C 490.84999,168.54326 489.5,169.1 489.1,170.6 l 0,0 c -0.1,0.4 -0.3,0.8 -0.4,1.4 -0.4,1.3 -0.7,3 -0.8,4.7 -0.1,1 -0.2,2 -0.2,2.9 -0.5,2.7 -0.6,5.3 -0.7,7.2 z"
           id="path38"
           style="fill:url(#SVGID_3_);fill-rule:evenodd;stroke:#000000;stroke-miterlimit:2.61310005"
           inkscape:connector-curvature="0" />
        <path
           class="st6"
           d="m 486.8,189.4 c 0,0 0.6,-15 2.1,-18.9 1.5,-3.9 5.2,-13.2 5.2,-13.2 l 0.3,0.1 c 0.9,0.4 1.9,0.9 3.1,1.4 l 1.9,0.8 c 0,0 -0.3,4.6 -0.5,6 -0.2,1.4 -0.8,5.7 -2.3,8.2 -1.5,2.5 -4.5,9.8 -4.5,11.5 0,1.7 0.2,5.2 0.2,5.2 -1.3,-2 -1.9,-2.6 -2.5,-2.8 -0.3,-0.2 -0.6,-0.3 -0.9,-0.3 -0.7,-0.2 -1.5,0.9 -2.1,2 l 0,0 z"
           id="path45"
           style="fill:url(#SVGID_4_);fill-rule:evenodd;stroke:#000000;stroke-miterlimit:2.61310005"
           inkscape:connector-curvature="0" />
        <path
           class="st7"
           d="m 494.2,193.6 c 0,0 4.1,6.1 5.4,13.2 1.3,7.1 0.1,10.2 -5.3,10.3 -11.3,0.2 -33.4,-14.4 -23.7,-16.1 2.3,-0.4 3.7,-1.4 4.5,-2.3 1.6,-1.9 0.5,-4.5 2.2,-5.3 1.4,-0.7 3.8,-0.5 5.3,-0.7 1.5,-0.2 3,-1.1 3.6,-2.3 0.6,-1.1 1.7,-3.5 2.6,-3.2 0.9,0.3 1.3,0 3.4,3.1 2,3.3 2,3.3 2,3.3 z"
           id="path47"
           inkscape:connector-curvature="0"
           style="fill:#eeaf20;fill-rule:evenodd;stroke:#000000;stroke-miterlimit:2.61310005" />
        <ellipse
           sodipodi:ry="1.69031"
           sodipodi:rx="2.2818267"
           sodipodi:cy="482.461"
           sodipodi:cx="-199.57082"
           cx="-199.57082"
           cy="482.461"
           rx="2.2818267"
           ry="1.69031"
           transform="matrix(-0.11273408,-0.99362519,0.99362519,-0.11273408,0,0)"
           class="st9"
           id="ellipse51"
           style="fill-rule:evenodd"
           d="m -197.28899,482.461 c 0,0.93353 -1.02161,1.69031 -2.28183,1.69031 -1.26021,0 -2.28182,-0.75678 -2.28182,-1.69031 0,-0.93353 1.02161,-1.69031 2.28182,-1.69031 1.26022,0 2.28183,0.75678 2.28183,1.69031 z" />
        <ellipse
           sodipodi:ry="0.47817966"
           sodipodi:rx="0.39995655"
           sodipodi:cy="-498.65674"
           sodipodi:cx="159.72983"
           inkscape:transform-center-y="-0.39423709"
           inkscape:transform-center-x="0.088469746"
           transform="matrix(0.02479421,0.99969258,-0.99943696,0.03355249,0,0)"
           ry="0.47817966"
           rx="0.39995655"
           class="st8"
           cx="159.72983"
           cy="-498.65674"
           id="circle53"
           style="fill:#ffffff;fill-rule:evenodd"
           d="m 160.12978,-498.65674 c 0,0.26409 -0.17906,0.47818 -0.39995,0.47818 -0.22089,0 -0.39996,-0.21409 -0.39996,-0.47818 0,-0.26409 0.17907,-0.47818 0.39996,-0.47818 0.22089,0 0.39995,0.21409 0.39995,0.47818 z" />
        <path
           sodipodi:nodetypes="zzzzz"
           class="st9"
           d="m 512.36711,141.51261 c 1.05422,0.68271 1.46256,2.63925 0.85602,3.74604 -0.60654,1.1068 -1.93809,1.56857 -2.8578,1.06936 -0.91971,-0.4992 -1.46028,-2.0253 -0.98771,-3.41801 0.47256,-1.39272 1.93527,-2.0801 2.98949,-1.39739 z"
           id="path57"
           inkscape:connector-curvature="0"
           style="fill-rule:evenodd" />
        <ellipse
           sodipodi:ry="0.5"
           sodipodi:rx="0.60000002"
           sodipodi:cy="143.10001"
           sodipodi:cx="511.60001"
           class="st8"
           cx="511.60001"
           cy="143.10001"
           rx="0.60000002"
           ry="0.5"
           id="ellipse59"
           style="fill:#ffffff;fill-rule:evenodd"
           d="m 512.20001,143.10001 c 0,0.27614 -0.26863,0.5 -0.6,0.5 -0.33137,0 -0.6,-0.22386 -0.6,-0.5 0,-0.27615 0.26863,-0.5 0.6,-0.5 0.33137,0 0.6,0.22385 0.6,0.5 z" />
        <path
           inkscape:connector-curvature="0"
           style="fill:url(#SVGID_5_);fill-rule:evenodd;stroke:#000000;stroke-miterlimit:2.61310005"
           id="path74"
           d="m 518.7,210.8 c 0,0 -1.8,5.4 -10.2,2.2 -8.4,-3.2 -6.2,-6.8 -6.2,-6.8 l 12,-37.6 2.4,-1.7 c 0,0 -0.6,1.8 0.3,3 0.9,1.2 1.8,2.8 3,2.3 1.1,-0.5 2.2,-2.4 3.8,-2.4 1.6,0 2.7,-0.2 3.3,1.4 0.6,1.6 1.7,2.8 1.7,2.8 l 1.3,0.8 1.1,-0.8 -12.5,36.8 z"
           class="st10" />
        <path
           sodipodi:nodetypes="csccscscscc"
           inkscape:connector-curvature="0"
           style="fill:url(#SVGID_6_);fill-rule:evenodd;stroke:#000000;stroke-miterlimit:2.61310005"
           id="path81"
           d="m 541.3,148 c 0,0 -8.3,7.5 -12.5,9.6 -4.2,2.1 -7.5,4.6 -7.5,4.6 l -4.6,4.7 c 0,0 -0.6,1.8 0.3,3 0.9,1.2 1.8,2.8 3,2.3 1.1,-0.5 2.2327,-2.07818 3.8,-2.4 0.96854,-0.19887 2.43258,0.12097 2.9,0.7 0,0 6.5,-3.6 7.4,-4.7 C 535,164.7 539,155 539,155 z"
           class="st11" />
        <path
           inkscape:connector-curvature="0"
           style="fill:url(#SVGID_7_);fill-rule:evenodd;stroke:#000000;stroke-miterlimit:2.61310005"
           id="path94"
           d="m 514.2,169.1 3.8,-9.4 c 0,0 9.5,-3.6 11.6,-5.4 2.1,-1.7 11.2,-7.3 11.8,-8.1 0.5,-0.8 1.9,-2.6 1.9,-2.6 l -2,4.4 c 0,0 -8.3,7.5 -12.5,9.6 -4.2,2.1 -7.5,4.6 -7.5,4.6 l -4.6,4.7 -2.5,2.2 z"
           class="st12" />
        <path
           inkscape:connector-curvature="0"
           style="fill:url(#SVGID_8_);fill-rule:evenodd;stroke:#000000;stroke-miterlimit:2.61310005"
           id="path101"
           d="m 533.5,140.4 c 0,0 -2.8,5.4 -6.1,7.9 -3.3,2.5 -7.7,6.6 -8.1,7.8 -0.4,1.2 -1.4,3.6 -1.4,3.6 0,0 9.5,-3.6 11.6,-5.4 2,-1.7 10.9,-7.2 11.8,-8.1 l 1.9,-2.6 0,0 0,0 0,0 0,0 0,0 1.6,-3.3 c 0,0 -2.3,0.3 -5.5,0.2 -3.2,-0.2 -5.8,-0.1 -5.8,-0.1 z"
           class="st13" />
        <g
           id="g103">
          <linearGradient
             y2="149.67171"
             x2="528.36621"
             y1="147.8483"
             x1="523.87097"
             gradientUnits="userSpaceOnUse"
             id="linearGradient4851">
            <stop
               id="stop4853"
               style="stop-color:#C2C0BF"
               offset="0" />
            <stop
               id="stop4855"
               style="stop-color:#888787"
               offset="0.18" />
            <stop
               id="stop4857"
               style="stop-color:#DDDDDE"
               offset="0.41" />
            <stop
               id="stop4859"
               style="stop-color:#A8A8A9"
               offset="0.6" />
            <stop
               id="stop4861"
               style="stop-color:#C2C1C0"
               offset="1" />
          </linearGradient>
          <path
             inkscape:connector-curvature="0"
             style="fill:url(#SVGID_9_);fill-rule:evenodd"
             id="path116"
             d="m 518.8,157.8 c 1.9,-7.9 3.7,-11.8 5.1,-13.9 1.6,-2.3 6.8,-5.5 7.6,-5 l 1,0.7 1.1,0.7 0,0 c 0,0 -3.3,2.5 -5.2,4.1 -0.2,0.1 -6,5.7 -7.6,9.1 -0.3,0.7 -0.7,1 -1.2,2.1 -0.1,0.2 -0.2,0.4 -0.3,0.5 -0.1,0.5 -0.3,1.1 -0.5,1.7 l 0,0 z m 1.9,-3.4 -0.2,0.2 0.2,-0.2 z"
             class="st14" />
          <path
             style="fill:none;stroke:#000000;stroke-miterlimit:2.61310005"
             inkscape:connector-curvature="0"
             id="path118"
             d="m 518.8,157.8 c 1.9,-7.9 3.7,-11.8 5.1,-13.9 1.6,-2.3 6.8,-5.5 7.6,-5 l 1,0.7 1.1,0.7 0,0 c 0,0 -3.3,2.5 -5.2,4.1 -0.2,0.1 -6,5.7 -7.6,9.1 -0.3,0.7 -0.7,1 -1.2,2.1 -0.1,0.2 -0.2,0.4 -0.3,0.5 -0.1,0.5 -0.3,1.1 -0.5,1.7 l 0,0 z m 1.9,-3.4 -0.2,0.2"
             class="st15" />
        </g>
        <path
           inkscape:connector-curvature="0"
           style="fill:url(#SVGID_10_);fill-rule:evenodd;stroke:#000000;stroke-miterlimit:2.61310005"
           id="path125"
           d="m 524.1,133.1 -0.2,10.8 0.1,0 c 2.7,-2.2 7.5,-4.9 7.5,-4.9 l 1,0.7 c 0,0 0.9,-0.8 -0.3,-1.9 -1.1,-1.1 -8.1,-4.7 -8.1,-4.7 z"
           class="st16" />
        <path
           inkscape:connector-curvature="0"
           style="fill:url(#SVGID_11_);fill-rule:evenodd;stroke:#000000;stroke-miterlimit:2.61310005"
           id="path138"
           d="m 524.1,133.1 c 0,0 2.6,0.5 4.4,1.1 1.8,0.7 4.3,1.4 4.6,1.6 0.3,0.2 1.6,2 1.7,2.3 0,0.1 0.1,0.3 0.2,0.6 -0.9,0.1 -2.4,0.2 -2.4,0.2 l 0,0 c 0,-0.3 -0.2,-0.6 -0.6,-1 -0.9,-1.2 -7.9,-4.8 -7.9,-4.8 l 0,0 z m 9.2,8.3 -0.3,0 0.1,-0.2 0.2,0.2 z"
           class="st17" />
        <path
           inkscape:connector-curvature="0"
           style="fill:url(#SVGID_12_);fill-rule:evenodd;stroke:#000000;stroke-miterlimit:2.61310005"
           id="path151"
           d="m 544.8,140.3 -2.6,-1 c 0,0 -1.4,-0.3 -2.9,-0.4 -1.5,-0.2 -3.2,-0.5 -3.7,-0.3 -0.5,0.2 -2.9,0.3 -2.9,0.3 l -1.4,0.1 2.2,1.5 c 0.1,0 2.7,-0.1 5.8,0.1 3.2,0 5.5,-0.3 5.5,-0.3 z"
           class="st18" />
        <path
           inkscape:connector-curvature="0"
           style="fill:url(#SVGID_13_);fill-rule:evenodd;stroke:#000000;stroke-miterlimit:2.61310005"
           id="path158"
           d="m 531.2,174 3.1,-7.4 -7.1,4.8 c 0.6,1.5 1.6,2.6 1.6,2.6 l 1.3,0.8 1.1,-0.8 z"
           class="st19" />
        <path
           inkscape:connector-curvature="0"
           style="fill:url(#SVGID_14_);fill-rule:evenodd;stroke:#000000;stroke-miterlimit:2.61310005"
           id="path171"
           d="m 527.8,172.6 6.5,-6 c 2.1,-2.7 2.7,-5.6 4,-9.9 -1.2,2.8 -3.5,6.4 -4.2,7.2 -2.2,2.8 -4.1,4.7 -7.4,6.6 l 0,0 0,0 0,0 0,0 0,0 0,0 0,0 0,0 0,0 0,0 0,0 0,0 0,0 0,0 0,0 0,0 0,0 0,0 0,0 0,0 0,0 0,0 0,0 0,0 0,0 0,0 0,0 0,0 0,0 0,0 0,0 0,0 0,0 0,0 0,0 0,0 0,0 0,0 0,0 0,0 0,0 0,0 0,0 0,0 0,0 0,0 0,0 0,0 0,0 0,0 0,0 0,0 0,0 0,0 0,0 0,0 0,0 0,0 0,0 0,0 0,0 0,0 0,0 0,0 0,0 0,0 0,0 0,0 0,0 0,0 0,0 0,0 0,0 0,0 0,0 0,0 0,0 0,0 0,0 0,0 0,0 0,0 0,0 0,0 0,0 0,0 0,0 0,0 0,0 0,0 0,0 0,0 0,0 0,0 0,0 0,0 0,0 0,0 0,0 0,0 0,0 0,0 0,0 0,0 0,0 0,0 0,0 0,0 0,0 0,0 0,0 0,0 0,0 0,0 0,0 0,0 0,0 0,0 0,0 0,0 0,0 0,0 0,0 0,0 0,0 0,0 0,0 0,0 0,0 0,0 0,0 1.1,2.1 z"
           class="st20" />
        <path
           inkscape:connector-curvature="0"
           style="fill:url(#SVGID_15_);fill-rule:evenodd;stroke:#000000;stroke-miterlimit:2.61310005"
           id="path184"
           d="m 519.6,155.7 c 1.3,-4.2 4.3,-7.6 7.1,-10.1 3.5,-3.2 4.7,-3.8 6.8,-5.1 0,0 -2.8,5.4 -6.1,7.9 -2.9,2.2 -6.7,5.7 -7.8,7.3 z"
           class="st21" />
        <path
           sodipodi:nodetypes="ccccc"
           style="fill:#6d6c6c;fill-opacity:1;fill-rule:evenodd;stroke:#000000;stroke-miterlimit:2.61310005"
           inkscape:connector-curvature="0"
           id="path186"
           d="m 511.36869,189.90399 c 1.11431,0.21706 11.55398,2.25445 11.55398,2.25445 0,0 -2.42211,9.51167 -2.79759,10.28241 -0.56766,0.34964 -11.72393,-2.25234 -11.88618,-2.85024 0.12849,-0.66003 2.58358,-8.55543 3.12979,-9.68662 z"
           class="st22" />
        <path
           sodipodi:nodetypes="ccccc"
           style="fill:#89898a;fill-opacity:1;fill-rule:evenodd;stroke:#000000;stroke-miterlimit:2.61310005"
           inkscape:connector-curvature="0"
           id="path188"
           d="m 509.16653,198.25447 2.20669,-6.8837 10.38934,1.9431 c 0,0 -1.66887,6.73148 -2.04724,7.50444 -0.55494,0.25887 -10.5794,-2.3496 -10.54879,-2.56384 z"
           class="st23" />
        <path
           class="st7"
           d="m 533.1,218.1 c 6.7,-3.8 13.4,-10.2 14.5,-11.9 1.1,-1.7 1.3,-4.3 -1.8,-5 -3.1,-0.7 -4.8,-0.8 -5.7,-2.8 -0.9,-2 -0.8,-3.4 -2.7,-3.8 -1.9,-0.4 -5.2,1.2 -6.5,0.1 -1.3,-1.1 -2.5,-4.1 -3.7,-3.9 -1.1,0.2 -2.4,0.3 -3.3,2.5 -0.8,2.3 -3.3,7.7 -3.4,13.2 -0.1,3 -0.2,5.6 -0.2,7.6 0.6,7.9 7.3,7.2 12.8,4 z"
           id="path190"
           inkscape:connector-curvature="0"
           style="fill:#eeaf20;fill-rule:evenodd;stroke:#000000;stroke-miterlimit:2.61310005" />
        <path
           sodipodi:nodetypes="sccccccccccccccscccccccccccccccc"
           class="st24"
           d="m 520.1,172 c 0.92536,0.56009 2.15625,0.95 3.1,1.5 5.87173,2.39986 6.31893,-2.3412 9.7,-2.1 0.7,0.1 1.4,0.5 2.2,1.3 0.65736,0.63409 1.06262,1.58821 1.4,2.3 l 0,0 c 0.25824,0.61904 0.52576,1.01832 0.8,1.8 l 0,0 c 0.16939,0.45307 0.68783,6.46319 0.5,10.3 -0.5,2.3 -1.6,3.2 -3.9,4.2 -1.33037,0.16528 -2.67528,0.13289 -4,0 -3.4,-0.8 -11.3,-7.5 -11.3,-7.5 0,0 -5.5,-4.2 -7.1,-9.7 -1.6,-5.4 -1.4,-6.6 -0.4,-7.3 0.9,-0.6 2.6,0.2 3.8,1 -0.3,-0.1 2.3242,2.45938 5.2,4.2 z m 16.5,2.4 0,0 0,0 0,0.1 0,0 0,0 0,0 0,0 0,0 0,0 0,0 0,0 0,0 0,0.6 0,0 c 0.002,0.29554 0.34432,-0.17525 0,-0.7 z"
           id="path197"
           style="fill:url(#SVGID_16_);fill-rule:evenodd;stroke:#000000;stroke-miterlimit:2.61310005"
           inkscape:connector-curvature="0" />
        <path
           style="fill:url(#linearGradient4506);fill-opacity:1;fill-rule:evenodd;stroke:#000000;stroke-width:1px;stroke-linecap:butt;stroke-linejoin:bevel;stroke-opacity:1"
           d="m 495.03724,142.4734 -0.0619,4.73617 1.1763,0.58815 9.06991,-2.04305 1.30012,-0.24764 4.55043,1.95018 0.86675,1.85732 c 0.006,0.053 5.01555,-0.9915 6.37048,-2.64844 0.60144,-0.73549 0.51855,-4.18248 0.46281,-5.87504 -1.7228,-0.81537 -3.50557,-1.89296 -3.50557,-1.89296 l -7.59953,-1.3156 -5.85056,0.43337 -5.66482,1.91923 z"
           id="path6641"
           inkscape:connector-curvature="0"
           sodipodi:nodetypes="cccccccscccccc" />
        <path
           class="st7"
           d="m 513,152.3 c 0,0 2.5,13 -10.7,8.4 -13.2,-4.6 -13.7,-6.9 -14,-7.6 -0.3,-0.7 -0.9,-3.7 -0.8,-4.5 0.1,-0.8 0.3,-2.8 2.3,-2.7 2.1,0 5.4,1.8 6.9,1.8 1.5,0 5.1,-1.3 7,-1.7 2,-0.4 2.5,-0.8 4.5,-0.1 2,0.8 2.8,1.1 3.6,2.8 0.8,1.6 1.2,3.6 1.2,3.6 z"
           id="path211"
           inkscape:connector-curvature="0"
           style="fill:#eeaf20;fill-rule:evenodd;stroke:#000000;stroke-miterlimit:2.61310005" />
        <path
           class="st25"
           d="m 494.5,142.9 c 0,0 0.3,-0.3 0.8,-0.7 0.1,-0.6 0.2,-1 0.4,-1.2 0.7,-0.8 7.8,-2.5 10.8,-2.6 1.6,-0.1 4.2,0.2 6.5,0.5 0.7,0.1 1.3,0.2 1.8,0.3 l 0.3,0.1 c 1,0.2 1.8,0.5 2.1,0.7 0.9,0.3 1.2,0.5 1.2,0.5 l 5.49879,-0.23096 0.001,-2.36904 -8.6,0.1 c 0,0 0.1,-0.6 -4.2,-0.9 -4.4,-0.3 -8.4,-0.4 -10.8,0.2 -2.5,0.6 -5.7,2.4 -5.7,2.4 0,0 -1,0.7 -1,1.4 0,0.7 -0.1,1.2 0,1.5 0.1,0.2 0.9,0.3 0.9,0.3 z"
           id="path218"
           style="fill:url(#SVGID_19_);fill-rule:evenodd;stroke:#000000;stroke-miterlimit:2.61310005"
           inkscape:connector-curvature="0"
           sodipodi:nodetypes="cccccccccccccccscc" />
        <path
           class="st15"
           d="m 510.2,152.8 c 0,0 -11,2 -14.6,-0.9 -3.7,-2.9 -7.9,-1.6 -7.9,-1.6"
           id="path220"
           inkscape:connector-curvature="0"
           style="fill:none;stroke:#000000;stroke-miterlimit:2.61310005" />
      </g>
      <path
         style="fill:#f26222"
         inkscape:connector-curvature="0"
         id="path226"
         d="m 269.7,179.4 -21.4,0.2 -0.2,-28.9 7.2,-0.1 0.2,22.5 14.3,-0.1 -0.1,6.4 z"
         class="st26" />
      <path
         style="fill:#f26222"
         inkscape:connector-curvature="0"
         id="path228"
         d="m 278.7,179.3 -7.2,0.1 -0.2,-28.9 7.2,-0.1 0.2,28.9 z"
         class="st26" />
      <path
         style="fill:#f26222"
         inkscape:connector-curvature="0"
         id="path230"
         d="m 308.9,179.1 -5.5,0 -14,-15.7 0.1,15.8 -7.2,0.1 -0.2,-28.9 5.5,0 14,16.2 -0.1,-16.3 7.1,-0.1 0.3,28.9 z"
         class="st26" />
      <path
         style="fill:#f26222"
         inkscape:connector-curvature="0"
         id="path232"
         d="m 338.9,165.5 c 0.1,9 -5.1,14.1 -13.4,14.2 -8.2,0.1 -13.5,-5 -13.5,-14 l -0.1,-15.4 7.2,-0.1 0.1,15.5 c 0,4.4 2.5,7.2 6.3,7.2 3.8,0 6.2,-2.9 6.2,-7.3 l -0.1,-15.5 7.2,-0.1 0.1,15.5 z"
         class="st26" />
      <path
         style="fill:#f26222"
         inkscape:connector-curvature="0"
         id="path234"
         d="m 354.3,169.9 -6.2,8.9 -8.2,0.1 9.5,-14.3 -9.6,-14.6 8.6,-0.1 5.8,8.9 5.6,-9 8.6,-0.1 -9.4,14.7 9.7,14.2 -8.2,0.1 -6.2,-8.8 z"
         class="st26" />
      <path
         style="fill:#333232"
         inkscape:connector-curvature="0"
         id="path236"
         d="m 394.9,167.9 4.2,0 c -1.3,6.7 -6.6,11.3 -13.8,11.4 -8.3,0.1 -15.1,-6.3 -15.1,-14.9 -0.1,-8.6 6.6,-15.1 14.9,-15.1 7.1,-0.1 12.5,4.5 13.9,11.2 l -4.2,0 c -1.2,-4.5 -4.8,-7.3 -9.7,-7.3 -6.2,0 -10.9,4.7 -10.9,11.2 0,6.5 4.8,11.1 11,11 5,-0.2 8.5,-3 9.7,-7.5 z"
         class="st27" />
      <path
         style="fill:#333232"
         inkscape:connector-curvature="0"
         id="path238"
         d="m 428.9,178.3 -3.3,0 -17.8,-21.3 0.2,21.4 -4,0 -0.2,-28.9 3.2,0 17.9,21.6 -0.2,-21.7 4.1,0 0.1,28.9 z"
         class="st27" />
      <path
         style="fill:#333232"
         inkscape:connector-curvature="0"
         id="path240"
         d="m 458.3,167.4 4.2,0 c -1.3,6.7 -6.6,11.3 -13.8,11.4 -8.3,0.1 -15.1,-6.3 -15.1,-14.9 -0.1,-8.6 6.6,-15.1 14.9,-15.1 7.1,-0.1 12.5,4.5 13.9,11.2 l -4.2,0 c -1.2,-4.5 -4.8,-7.3 -9.7,-7.3 -6.2,0 -10.9,4.7 -10.9,11.2 0,6.5 4.8,11.1 11,11 5,-0.1 8.5,-2.9 9.7,-7.5 z"
         class="st27" />
      <path
         class="st27"
         d="m 248,201.5 c 0,0 97.6,-26.2 214.4,-14.1 0,0 -87.1,-4.6 -214.4,14.1 z"
         id="path242"
         inkscape:connector-curvature="0"
         style="fill:#333232" />
    </g>
  </g>
</svg>
