<?xml version="1.0" encoding="UTF-8" standalone="no"?>
<!-- Created with Inkscape (http://www.inkscape.org/) -->

<svg
   xmlns:osb="http://www.openswatchbook.org/uri/2009/osb"
   xmlns:dc="http://purl.org/dc/elements/1.1/"
   xmlns:cc="http://creativecommons.org/ns#"
   xmlns:rdf="http://www.w3.org/1999/02/22-rdf-syntax-ns#"
   xmlns:svg="http://www.w3.org/2000/svg"
   xmlns="http://www.w3.org/2000/svg"
   xmlns:xlink="http://www.w3.org/1999/xlink"
   xmlns:sodipodi="http://sodipodi.sourceforge.net/DTD/sodipodi-0.dtd"
   xmlns:inkscape="http://www.inkscape.org/namespaces/inkscape"
   width="131.2314"
   height="151.57506"
   id="svg1"
   sodipodi:version="0.32"
   inkscape:version="0.92.4 (5da689c313, 2019-01-14)"
   sodipodi:docname="chips_rework_ol_combined.svg"
   inkscape:output_extension="org.inkscape.output.svg.inkscape"
   version="1.1">
  <sodipodi:namedview
     id="base"
     pagecolor="#ffffff"
     bordercolor="#666666"
     borderopacity="1.0"
     inkscape:pageopacity="0.0"
     inkscape:pageshadow="2"
     inkscape:zoom="3.9231932"
     inkscape:cx="97.831511"
     inkscape:cy="56.778122"
     inkscape:current-layer="svg1"
     showguides="true"
     inkscape:guide-bbox="true"
     inkscape:window-width="2560"
     inkscape:window-height="1375"
     inkscape:window-x="0"
     inkscape:window-y="33"
     showgrid="false"
     inkscape:window-maximized="1"
     fit-margin-top="0"
     fit-margin-left="0"
     fit-margin-right="0"
     fit-margin-bottom="0" />
  <defs
     id="defs3">
    <linearGradient
       id="linearGradient6847">
      <stop
         id="stop6843"
         style="stop-color:#0aba9d;stop-opacity:1"
         offset="0.0000000" />
      <stop
         id="stop6845"
         style="stop-color:#92faab;stop-opacity:1"
         offset="1.0000000" />
    </linearGradient>
    <linearGradient
       id="linearGradient1982"
       osb:paint="solid">
      <stop
         style="stop-color:#999999;stop-opacity:1;"
         offset="0"
         id="stop1980" />
    </linearGradient>
    <linearGradient
       id="linearGradient3407"
       inkscape:collect="always">
      <stop
         offset="0"
         style="stop-color:#137722;stop-opacity:1;"
         id="stop3409" />
      <stop
         offset="1"
         style="stop-color:#137722;stop-opacity:0;"
         id="stop3411" />
    </linearGradient>
    <linearGradient
       id="linearGradient22730">
      <stop
         offset="0.0000000"
         style="stop-color:#ffffff;stop-opacity:1.0000000;"
         id="stop22731" />
      <stop
         offset="1.0000000"
         style="stop-color:#f2f2f2;stop-opacity:1.0000000;"
         id="stop22732" />
    </linearGradient>
    <linearGradient
       id="linearGradient16377">
      <stop
         offset="0.0000000"
         style="stop-color:#a9a9a9;stop-opacity:1.0000000;"
         id="stop16378" />
      <stop
         offset="1.0000000"
         style="stop-color:#3a3a3a;stop-opacity:1.0000000;"
         id="stop16379" />
    </linearGradient>
    <linearGradient
       id="linearGradient18266">
      <stop
         offset="0.0000000"
         style="stop-color:#9d9d9d;stop-opacity:1.0000000;"
         id="stop18267" />
      <stop
         offset="0.14491023"
         style="stop-color:#bdbdbd;stop-opacity:1.0000000;"
         id="stop18268" />
      <stop
         offset="0.19321364"
         style="stop-color:#a7a7a7;stop-opacity:1.0000000;"
         id="stop18900" />
      <stop
         offset="0.33420739"
         style="stop-color:#929292;stop-opacity:1.0000000;"
         id="stop18270" />
      <stop
         offset="0.48269466"
         style="stop-color:#efefef;stop-opacity:1.0000000;"
         id="stop18271" />
      <stop
         offset="0.71234274"
         style="stop-color:#ffffff;stop-opacity:1.0000000;"
         id="stop18273" />
      <stop
         offset="0.83263463"
         style="stop-color:#9d9d9d;stop-opacity:1.0000000;"
         id="stop18272" />
      <stop
         offset="0.86108357"
         style="stop-color:#a7a7a7;stop-opacity:1.0000000;"
         id="stop18274" />
      <stop
         offset="0.94790632"
         style="stop-color:#acacac;stop-opacity:1.0000000;"
         id="stop21430" />
      <stop
         offset="1.0000000"
         style="stop-color:#7f7f7f;stop-opacity:1.0000000;"
         id="stop18269" />
    </linearGradient>
    <linearGradient
       id="linearGradient15131">
      <stop
         offset="0.0000000"
         style="stop-color:#2a2a2a;stop-opacity:1.0000000;"
         id="stop15132" />
      <stop
         offset="1.0000000"
         style="stop-color:#cbcbcb;stop-opacity:1.0000000;"
         id="stop15133" />
    </linearGradient>
    <linearGradient
       x1="255.4593"
       gradientTransform="scale(0.675647,1.480063)"
       x2="627.12024"
       y1="304.6048"
       inkscape:collect="always"
       gradientUnits="userSpaceOnUse"
       y2="287.92453"
       xlink:href="#linearGradient15131"
       id="linearGradient21447" />
    <linearGradient
       id="linearGradient7024">
      <stop
         offset="0.0000000"
         style="stop-color:#8d8d8d;stop-opacity:1.0000000;"
         id="stop7025" />
      <stop
         offset="1.0000000"
         style="stop-color:#4e4e4e;stop-opacity:1.0000000;"
         id="stop7026" />
    </linearGradient>
    <linearGradient
       id="linearGradient5121">
      <stop
         offset="0.0000000"
         style="stop-color:#ffffff;stop-opacity:0.38431373;"
         id="stop5122" />
      <stop
         offset="1.0000000"
         style="stop-color:#efffff;stop-opacity:0.75000000;"
         id="stop1951" />
      <stop
         offset="1.0000000"
         style="stop-color:#dfffff;stop-opacity:0.39607844;"
         id="stop5123" />
    </linearGradient>
    <linearGradient
       id="linearGradient3856">
      <stop
         offset="0.0000000"
         style="stop-color:#fff00f;stop-opacity:1.0000000;"
         id="stop3857" />
      <stop
         offset="1.0000000"
         style="stop-color:#ffa700;stop-opacity:1.0000000;"
         id="stop3858" />
    </linearGradient>
    <linearGradient
       x1="135.4489"
       gradientTransform="scale(1.745123,0.573025)"
       x2="154.64525"
       y1="1149.3593"
       inkscape:collect="always"
       gradientUnits="userSpaceOnUse"
       y2="1149.3593"
       xlink:href="#linearGradient5121"
       id="linearGradient5775" />
    <linearGradient
       x1="149.02321"
       gradientTransform="matrix(1.046173,0,0,1.111075,191.2241,-296.3646)"
       x2="191.44447"
       y1="857.83252"
       inkscape:collect="always"
       gradientUnits="userSpaceOnUse"
       y2="857.83252"
       xlink:href="#linearGradient7024"
       id="linearGradient7031" />
    <linearGradient
       x1="-207.73981"
       gradientTransform="scale(-1.712174,0.584053)"
       x2="-239.59451"
       y1="1184.2738"
       inkscape:collect="always"
       gradientUnits="userSpaceOnUse"
       y2="1216.1096"
       xlink:href="#linearGradient3856"
       id="linearGradient22854" />
    <linearGradient
       x1="326.3602"
       gradientTransform="matrix(0.7264404,0,0,0.4568558,77.287714,379.87109)"
       x2="347.77478"
       y1="624.466"
       inkscape:collect="always"
       gradientUnits="userSpaceOnUse"
       y2="625.09113"
       xlink:href="#linearGradient7024"
       id="linearGradient22856" />
    <linearGradient
       x1="281.39603"
       gradientTransform="scale(1.244521,0.803522)"
       x2="267.95276"
       y1="761.72382"
       inkscape:collect="always"
       gradientUnits="userSpaceOnUse"
       y2="738.43451"
       xlink:href="#linearGradient5121"
       id="linearGradient1329" />
    <linearGradient
       x1="151.45839"
       gradientTransform="scale(2.209872,0.452515)"
       x2="148.13518"
       y1="1310.9768"
       inkscape:collect="always"
       gradientUnits="userSpaceOnUse"
       y2="1310.0933"
       xlink:href="#linearGradient15131"
       id="linearGradient2588" />
    <linearGradient
       y2="326.15277"
       x2="353.63721"
       y1="326.15277"
       inkscape:collect="always"
       gradientUnits="userSpaceOnUse"
       x1="190.35329"
       xlink:href="#linearGradient3407"
       id="linearGradient3413" />
    <linearGradient
       inkscape:collect="always"
       xlink:href="#linearGradient7024"
       id="linearGradient4528-8"
       x1="-59.436848"
       y1="-88.590927"
       x2="24.570007"
       y2="-88.590927"
       gradientUnits="userSpaceOnUse"
       gradientTransform="matrix(0.48695034,0,0,0.56023255,73.616216,126.55719)" />
    <linearGradient
       inkscape:collect="always"
       xlink:href="#linearGradient6847"
       id="linearGradient6841"
       x1="371.97537"
       y1="727.55823"
       x2="374.65173"
       y2="679.88086"
       gradientUnits="userSpaceOnUse" />
  </defs>
  <metadata
     id="metadata4">
    <rdf:RDF>
      <cc:Work
         rdf:about="">
        <dc:format>image/svg+xml</dc:format>
        <dc:type
           rdf:resource="http://purl.org/dc/dcmitype/StillImage" />
        <dc:title></dc:title>
      </cc:Work>
    </rdf:RDF>
  </metadata>
  <path
     id="path7082"
     style="fill:none;fill-opacity:1;fill-rule:evenodd;stroke:#000010;stroke-width:0.5;stroke-linecap:round;stroke-linejoin:round;stroke-miterlimit:4;stroke-dasharray:none;stroke-opacity:1"
     d="M 97.036186,7.2372126 C 92.990501,16.184625 95.28993,19.192689 91.870366,26.47771 m 15.419734,76.29934 c 5.88798,-1.39313 9.84671,-5.93542 9.67433,-11.10041 -0.0969,-2.902216 -3.3988,-13.630569 -5.04787,-16.401031 -2.54603,-4.277395 -3.34506,-4.497216 -8.89431,-2.446896 -8.606786,2.889222 -9.869586,2.174293 -12.459056,2.152357 -5.56103,-0.186646 -10.69269,-1.910898 -18.27267,-6.908495 -4.810248,-3.171469 -9.508537,-4.177931 -9.459894,-2.155016 0.05684,2.363968 2.224135,9.225489 4.563817,12.974559 3.700368,5.929414 11.045307,12.037543 20.964317,18.205974 10.30236,6.406808 12.750846,7.141298 18.931336,5.678958 z M 127.7856,18.811993 117.62224,15.37569 c 0,0 -9.42279,0.973259 -14.8488,-1.033893 3.98948,2.632049 18.94382,6.586733 25.01216,4.470196 z M 109.78388,11.223605 C 106.23614,9.1351735 103.67963,9.3764522 97.036186,7.2372126 104.20314,11.576617 105.71236,11.984082 107.89853,15.402042 M 67.846455,106.9515 c 0.609974,0.79914 12.598793,7.24295 16.043563,5.13764 2.504886,-1.53089 4.795332,-7.95212 4.251002,-9.56791 -0.896166,-2.660185 -16.270541,-6.160199 -16.500352,-5.647037 m 0.936011,-2.148645 c -0.831506,1.239455 -5.568615,12.196202 -5.15619,14.241312 0.15016,0.7446 14.254738,6.70128 15.682627,5.5111 2.862742,-2.38618 7.274337,-12.0748 6.0975,-14.02713 C 88.183157,98.762899 73.014315,94.073202 72.576679,94.725548 Z M 116.60336,15.435576 c -1.77804,-1.672653 -2.90372,-2.772038 -5.2825,-4.114839 -0.13032,2.060516 -0.91442,2.605576 -1.42679,4.206605 M 102.77351,14.34131 C 95.01639,25.948099 90.958977,20.383023 81.638013,49.37205 88.464318,26.910275 99.644025,32.568291 110.43818,17.404319 M 81.638013,49.37205 c -1.312607,2.666662 -3.219542,7.740019 -5.477533,13.778878 7.037607,-17.893233 5.433035,-4.578989 44.20638,-30.082431 0.74628,-0.600292 1.29698,-1.545447 2.4544,-4.903049 M 110.43818,17.404319 C 100.78981,34.39319 85.028587,39.892226 81.638013,49.37205 93.903053,47.71507 115.66836,32.747291 122.79403,28.186767 c 3.20028,-3.733856 4.99157,-9.374774 4.99157,-9.374774 m -23.29732,53.484882 c 0.7512,-1.869064 2.97232,-8.141963 2.97232,-8.141963 0,0 -6.50032,10.130454 -10.799407,8.608836 -3.56828,-1.262954 1.751852,-5.374362 -3.661643,-7.502568 -5.413496,-2.128206 -7.054351,4.490047 -11.346859,2.243378 -4.292508,-2.246669 0.966188,-7.174022 -3.360841,-8.972756 m -2.13137,4.619126 c -1.5478,3.898915 -1.116993,2.835813 -2.303058,5.878369 M 69.110715,81.39771 c -5.151074,13.729986 -6.629091,18.77611 -16.755246,44.28393 1.730671,6.7177 15.077937,12.58167 25.092699,11.0625 L 92.877431,99.902405 M 95.462196,70.612513 C 105.93435,65.824256 112.08491,55.016077 115.02138,48.079511 107.91119,63.465351 97.37353,61.966553 89.453172,65.076946 M 76.16048,63.150928 c -0.388607,0.953489 -0.996534,2.363371 5.719755,5.768239 15.827311,8.023761 19.474005,8.681667 28.256175,-10.189421 2.96896,-6.379687 5.11323,-9.912686 10.38481,-25.751019 M 117.62224,15.37569 c -1.77804,-1.672653 -5.1576,-4.365686 -7.53638,-5.7084867 -0.13823,2.1230167 -1.51861,4.6614927 -2.18733,5.7348387 M 33.35643,36.31885 c 0,0 -0.58454,-1.22195 2.47386,-1.22195 4.75752,0 9.85485,12.57343 34.66189,7.13627 m 2.69399,0.77356 C 74.442717,52.328872 68.09925,57.79037 56.5778,54.41836 30.96242,42.23003 23.7901,31.35568 48.63118,31.87201 62.31323,27.21569 70.722108,24.726213 73.18617,43.00673 Z M 94.183374,17.661161 c -2.140142,-0.675083 -6.18883,-1.207137 -9.667749,-1.614287 -0.98001,-0.1147 -1.747819,-0.280379 -4.886719,-0.542969 -3.83404,-0.32074 -7.343205,-0.728912 -13.484375,-0.695311 -8.13345,0.04453 -22.908768,0.381577 -22.636719,9.117187 0.01788,0.57424 0.06266,0.280841 0.236329,-0.01172 1.23635,-2.082699 5.493558,-4.947226 20.705078,-5.441406 17.285667,-0.561568 25.70587,2.064876 29.226562,2.505859 M 70.728476,33.750005 c 8.340966,1.853183 14.176473,1.173951 13.191406,-7.728516 -0.06582,-1.22915 -0.369141,-3.535156 -0.369141,-3.535156 -0.217454,-1.381793 -0.713236,-2.490317 -1.427734,-3.384766 m -12.833985,-0.707031 4e-5,-5e-6 m -25.756193,5.812505 c 0.111679,2.46287 0.163759,5.297692 0.349903,7.726563 M 73.208195,24.18533 c -0.658,-0.737 -1.212,-0.967 -1.557,-0.737 -0.672,0.442 -0.13,0.82 0.474,1.49 0.394,0.426 0.591,1.426 1.247,1.097 0.835,-0.459 0.54,-1.065 -0.164,-1.85 z m -1.672,-1.506 c 1.868,0 2.949,1.669 3.325,3.798 0.146,0.967 -0.08,2.08 -0.672,2.849 -0.67,0.886 -1.865,1.442 -2.832,1.442 -0.918,0 -1.949,0.148 -2.491,-0.605 -0.555,-0.771 -0.67,-2.474 -0.67,-3.686 0,-1.358 0.394,-2.325 1.079,-3.096 0.527,-0.572 1.476,-0.702 2.261,-0.702 z m -14.754,2.113 c -0.428,-0.917 -1.59,-1.131 -1.883,-0.689 -0.295,0.458 0.082,0.899 0.737,1.85 0.67,1.015 0.425,2.129 1.195,1.884 0.293,-0.099 0.361,-2.113 -0.049,-3.045 z m 1.016629,4.317045 c 0.191005,-0.734617 0.244141,-1.628949 0.244141,-2.482422 0,-1.064 -0.345313,-2.0145 -0.820313,-2.6875 -0.441,-0.655 -1.374906,-1.160156 -2.128906,-1.160156 -0.785,0 -1.356781,0.324625 -1.800781,1.015625 -0.655,0.948 -0.47461,2.014953 -0.47461,2.751953 0,1.194 0.819079,2.634688 1.080079,2.929687 0.194976,0.198372 0.344804,0.37899 0.474609,0.541016 m 15.445317,2.238281 c 0.441241,0.372279 1.469782,0.473481 2.314452,0.394532 0.84467,-0.07895 4.666891,-1.349516 5.337891,-3.853517 0.606,-2.225999 0.682344,-4.643593 -0.972656,-7.558593 C 75.666114,19.771005 75.023288,18.967473 74.269531,18.5 m -5.505859,-0.09761 c -1.483552,0.775427 -2.340379,2.184779 -2.828125,3.310547 -0.733063,1.669063 -0.591969,2.197265 -0.605469,3.99414 0.02879,1.471775 0.321455,2.424468 0.71875,3.28711 m -6.417969,-0.232468 c 0.371472,-0.955809 0.562952,-1.897425 0.541016,-3.626953 -10e-4,-2.473 -0.769641,-3.323688 -1.931641,-4.929688 -0.428253,-0.591489 -0.956148,-0.964429 -1.505859,-1.191406 m -3.644531,0.535156 c -0.331695,0.359353 -0.652292,0.821056 -0.908203,1.378906 -0.377,0.817 -0.673077,1.850266 -0.705079,2.947266 -0.066,2.914 0.180563,4.043391 0.851563,6.025391 0.07996,0.23651 0.179313,0.453249 0.28125,0.666015 M 90.41154,150.70277 c 13.89482,3.56532 41.40877,-19.46715 40.28654,-26.8596 -1.12223,-7.39246 -2.89155,-1.22037 -9.90885,-5.75618 -6.83686,-4.41917 -1.7196,-6.21432 -7.81539,-9.10302 -4.83003,-2.28888 -5.47312,1.88438 -10.74974,-0.67304 -5.06671,-2.45566 -1.37937,-4.2124 -7.24517,-6.00918 -6.10392,-1.86973 -18.29725,44.87804 -4.56739,48.40102 z M 48.2748,145.30042 C 34.54766,150.97975 0.94271,132.00756 0.53499,124.41466 c -0.40771,-7.59291 2.75455,-1.66231 9.10335,-7.2772 6.18556,-5.47051 0.46662,-6.5001 6.20614,-10.32177 4.54773,-3.02812 6.10903,1.06543 11.06512,-2.29983 4.75889,-3.23137 0.53915,-4.43839 6.2719,-7.12885 5.96549,-2.7997 28.65748,42.30149 15.0933,47.91341 z m 3.779888,-93.120732 c -1.613583,2.7507 -1.973862,6.277122 -2.28711,10.082031 -1.100661,16.990941 -9.63284,20.960466 -11.769531,38.083981 m 14.388672,33.75 c 0.490305,0.13632 0.98584,0.26255 1.496093,0.36328 3.137603,0.30979 6.392571,0.46796 9.555741,0.51993 m 16.07735,-80.692586 c -0.935409,-3.074507 -3.63911,-5.219985 -6.414341,-6.317574 m 5.85184,85.21044 c 1.942675,-0.58907 3.680626,-1.17752 5.361501,-2.13862 M 70.675781,1.0351562 C 69.085934,1.0585582 67.461202,1.195825 65.820312,1.4140625 60.862603,2.3406277 52.187972,3.0276685 48.414062,17.210938 M 91.181641,16.949611 C 87.550803,4.3396325 79.662721,0.90287299 70.675781,1.0351562 v 0 M 48.630859,31.871097 v 0 m -4.185547,16.041015 c -4.157068,19.924817 -12.087105,22.899214 -13.583984,50.875 M 51.389007,142.3106 c 1.071344,0.3724 2.174068,0.68911 3.3125,0.93359 12.222593,1.31271 21.44154,1.53995 30.097657,0.11719 M 117.125,114.48633 c 1.93134,-6.96011 2.22941,-14.942025 -0.16992,-23.937499 -2.21772,-9.420704 -5.862,-18.229783 -9.49448,-26.393919 M 92.679688,24.574222 C 92.499536,23.097177 92.336321,22.053548 92.078125,20.740238 M 69.289062,18.394534 v -3e-6 M 47.578125,21.07813 c -0.414715,2.372301 -0.718966,5.033358 -0.876953,8.048828 -0.04936,0.942104 -0.109184,1.837792 -0.169922,2.730469 m 51.328125,11.441401 c -0.190305,0.09815 -0.378267,0.190296 -0.568359,0.28711 0.192535,-0.09668 0.37534,-0.183855 0.570312,-0.283204 -6.02e-4,-0.0014 -0.0014,-0.0025 -0.002,-0.0039 l 4.7e-5,-6e-6 v 0 M 37.775391,67.607422 c -0.244195,-0.01806 -0.483379,-0.04189 -0.748047,-0.04492 -4.196723,-0.190222 -7.984409,-2.124794 -13.789063,-7.041016 -2.495718,-2.113727 -4.967237,-3.300425 -6.261719,-3.203125 v -2e-6 c -0.5884,0.04423 -0.933995,0.353822 -0.927734,0.962891 0.02474,2.409662 1.994847,10.077054 3.419922,13.3125 1.858637,4.219822 6.605793,10.045073 12.552734,15.546875" />
</svg>
